<svg width="977" height="220" viewBox="0 0 977 220" fill="none" xmlns="http://www.w3.org/2000/svg">
<g clip-path="url(#clip0_5_112)">
<path d="M739.199 118.844C1003.58 228.683 1110.31 593.98 966.5 940.123C822.692 1286.27 488.532 1468.39 224.152 1358.55C-40.2274 1248.72 -146.956 883.419 -3.14819 537.276C140.659 191.133 474.819 9.00563 739.199 118.844Z" stroke="url(#paint0_linear_5_112)" stroke-width="35"/>
<path d="M421.289 44.4915C753.984 1.28967 1061.61 254.1 1107.82 609.934C1154.03 965.768 921.168 1288.76 588.473 1331.96C255.778 1375.17 -51.8503 1122.36 -98.0569 766.522C-144.263 410.688 88.5941 87.6934 421.289 44.4915Z" stroke="url(#paint1_linear_5_112)" stroke-width="10"/>
<path d="M446.515 36.2682C744.174 -2.38415 1023.78 250.878 1069.63 603.936C1115.47 956.994 909.823 1273.27 612.164 1311.92C314.505 1350.57 34.8976 1097.31 -10.9485 744.254C-56.7947 391.195 148.856 74.9205 446.515 36.2682Z" stroke="url(#paint2_linear_5_112)" stroke-width="10"/>
<path d="M730.816 241.8C1073.99 421.912 1233.59 787.242 1092.24 1056.55C950.893 1325.86 559.567 1402.04 216.398 1221.92C-126.771 1041.81 -286.373 676.482 -145.026 407.173C-3.679 137.863 387.648 61.6876 730.816 241.8Z" stroke="url(#paint3_linear_5_112)" stroke-width="15"/>
<path d="M809.524 212.637C1086.4 373.046 1177.94 734.05 1012.67 1019.32C847.392 1304.6 488.679 1404.74 211.804 1244.33C-65.07 1083.92 -156.615 722.918 8.66042 437.644C173.936 152.37 532.649 52.2279 809.524 212.637Z" stroke="url(#paint4_linear_5_112)" stroke-width="35"/>
<path d="M251.419 199.336C560.554 23.7342 938.988 108.206 1097.11 386.57C1255.23 664.934 1134 1033.24 824.862 1208.84C515.726 1384.44 137.292 1299.97 -20.8302 1021.61C-178.953 743.245 -57.7164 374.938 251.419 199.336Z" stroke="url(#paint5_linear_5_112)" stroke-width="10"/>
<path d="M993.96 377.952C1183.98 637.303 1101.48 1022.08 807.939 1237.15C514.395 1452.22 122.651 1414.91 -67.3683 1155.56C-257.387 896.204 -174.892 511.432 118.653 296.36C412.198 81.2885 803.942 118.6 993.96 377.952Z" stroke="url(#paint6_linear_5_112)" stroke-width="10"/>
</g>
<defs>
<linearGradient id="paint0_linear_5_112" x1="217.438" y1="1374.72" x2="745.913" y2="102.683" gradientUnits="userSpaceOnUse">
<stop stop-color="#075985"/>
<stop offset="1" stop-color="#EC4899"/>
</linearGradient>
<linearGradient id="paint1_linear_5_112" x1="589.117" y1="1336.92" x2="420.645" y2="39.5333" gradientUnits="userSpaceOnUse">
<stop stop-color="#075985"/>
<stop offset="1" stop-color="#EC4899"/>
</linearGradient>
<linearGradient id="paint2_linear_5_112" x1="612.808" y1="1316.88" x2="445.871" y2="31.3099" gradientUnits="userSpaceOnUse">
<stop stop-color="#075985"/>
<stop offset="1" stop-color="#EC4899"/>
</linearGradient>
<linearGradient id="paint3_linear_5_112" x1="212.912" y1="1228.57" x2="734.302" y2="235.159" gradientUnits="userSpaceOnUse">
<stop stop-color="#075985"/>
<stop offset="1" stop-color="#EC4899"/>
</linearGradient>
<linearGradient id="paint4_linear_5_112" x1="203.031" y1="1259.47" x2="818.296" y2="197.495" gradientUnits="userSpaceOnUse">
<stop stop-color="#075985"/>
<stop offset="1" stop-color="#EC4899"/>
</linearGradient>
<linearGradient id="paint5_linear_5_112" x1="827.331" y1="1213.19" x2="248.949" y2="194.989" gradientUnits="userSpaceOnUse">
<stop stop-color="#075985"/>
<stop offset="1" stop-color="#EC4899"/>
</linearGradient>
<linearGradient id="paint6_linear_5_112" x1="-71.4017" y1="1158.51" x2="997.994" y2="374.996" gradientUnits="userSpaceOnUse">
<stop stop-color="#075985"/>
<stop offset="1" stop-color="#EC4899"/>
</linearGradient>
<clipPath id="clip0_5_112">
<rect width="1500" height="1500" fill="white" transform="translate(-268 -39)"/>
</clipPath>
</defs>
</svg>
