<svg width="981" height="308" viewBox="0 0 981 308" fill="none" xmlns="http://www.w3.org/2000/svg">
<g clip-path="url(#clip0_28_231)">
<path d="M-71.5848 974.85C-180.862 710.238 1.97395 376.465 348.421 233.393C694.869 90.3199 1059.94 197.823 1169.22 462.436C1278.49 727.048 1095.66 1060.82 749.21 1203.89C402.762 1346.97 37.6924 1239.46 -71.5848 974.85Z" stroke="url(#paint0_linear_28_231)" stroke-width="35"/>
<path d="M100.636 1252.22C-165.163 1047.52 -203.925 651.23 15.0145 366.944C233.954 82.6584 627.001 18.922 892.8 223.624C1158.6 428.327 1197.36 824.617 978.422 1108.9C759.482 1393.19 366.435 1456.92 100.636 1252.22Z" stroke="url(#paint1_linear_28_231)" stroke-width="10"/>
<path d="M76.9842 1240.2C-160.824 1057.05 -179.453 680.259 37.7789 398.19C255.011 116.122 624.067 37.8993 861.876 221.045C1099.68 404.19 1118.31 780.986 901.081 1063.05C683.849 1345.12 314.792 1423.34 76.9842 1240.2Z" stroke="url(#paint2_linear_28_231)" stroke-width="10"/>
<path d="M21.2853 893.835C-94.0132 523.82 51.4583 152.636 341.837 62.1527C632.215 -28.3305 962.789 194.515 1078.09 564.531C1193.39 934.546 1047.91 1305.73 757.536 1396.21C467.157 1486.7 136.584 1263.85 21.2853 893.835Z" stroke="url(#paint3_linear_28_231)" stroke-width="15"/>
<path d="M-54.9897 858.802C-137.343 549.596 53.1927 229.596 371.779 144.744C690.366 59.8925 1014.83 242.73 1097.18 551.936C1179.53 861.142 988.997 1181.14 670.41 1265.99C351.824 1350.84 27.3635 1168.01 -54.9897 858.802Z" stroke="url(#paint4_linear_28_231)" stroke-width="35"/>
<path d="M330.245 1262.85C-12.5162 1168.42 -220.379 841.1 -135.355 532.457C-50.3317 223.815 295.827 49.11 638.588 143.532C981.349 237.954 1189.21 565.278 1104.19 873.921C1019.16 1182.56 673.006 1357.27 330.245 1262.85Z" stroke="url(#paint5_linear_28_231)" stroke-width="10"/>
<path d="M-68.5114 611.49C-19.486 293.737 310.922 79.9951 670.568 135.484C1030.21 190.973 1280.84 494.361 1231.81 812.114C1182.79 1129.87 852.377 1343.61 492.731 1288.12C133.085 1232.63 -117.537 929.243 -68.5114 611.49Z" stroke="url(#paint6_linear_28_231)" stroke-width="10"/>
</g>
<defs>
<linearGradient id="paint0_linear_28_231" x1="1185.39" y1="455.756" x2="-87.7597" y2="981.53" gradientUnits="userSpaceOnUse">
<stop stop-color="#075985"/>
<stop offset="1" stop-color="#EC4899"/>
</linearGradient>
<linearGradient id="paint1_linear_28_231" x1="895.851" y1="219.663" x2="97.5856" y2="1256.18" gradientUnits="userSpaceOnUse">
<stop stop-color="#075985"/>
<stop offset="1" stop-color="#EC4899"/>
</linearGradient>
<linearGradient id="paint2_linear_28_231" x1="864.926" y1="217.083" x2="73.9334" y2="1244.16" gradientUnits="userSpaceOnUse">
<stop stop-color="#075985"/>
<stop offset="1" stop-color="#EC4899"/>
</linearGradient>
<linearGradient id="paint3_linear_28_231" x1="1085.25" y1="562.3" x2="14.1249" y2="896.066" gradientUnits="userSpaceOnUse">
<stop stop-color="#075985"/>
<stop offset="1" stop-color="#EC4899"/>
</linearGradient>
<linearGradient id="paint4_linear_28_231" x1="1114.09" y1="547.432" x2="-71.9001" y2="863.306" gradientUnits="userSpaceOnUse">
<stop stop-color="#075985"/>
<stop offset="1" stop-color="#EC4899"/>
</linearGradient>
<linearGradient id="paint5_linear_28_231" x1="639.916" y1="138.712" x2="328.917" y2="1267.67" gradientUnits="userSpaceOnUse">
<stop stop-color="#075985"/>
<stop offset="1" stop-color="#EC4899"/>
</linearGradient>
<linearGradient id="paint6_linear_28_231" x1="1236.75" y1="812.876" x2="-73.453" y2="610.728" gradientUnits="userSpaceOnUse">
<stop stop-color="#075985"/>
<stop offset="1" stop-color="#EC4899"/>
</linearGradient>
<clipPath id="clip0_28_231">
<rect width="1500" height="1500" fill="white" transform="translate(529 1798.66) rotate(-135)"/>
</clipPath>
</defs>
</svg>
