<svg width="1140" height="243" viewBox="0 0 1140 243" fill="none" xmlns="http://www.w3.org/2000/svg">
<g clip-path="url(#clip0_5_113)">
<path d="M-68.1559 462.801C41.6826 198.421 406.98 91.6927 753.123 235.5C1099.27 379.308 1281.39 713.468 1171.55 977.848C1061.72 1242.23 696.419 1348.96 350.276 1205.15C4.13264 1061.34 -177.994 727.181 -68.1559 462.801Z" stroke="url(#paint0_linear_5_113)" stroke-width="35"/>
<path d="M-142.508 780.711C-185.71 448.016 67.0997 140.388 422.934 94.1812C778.768 47.9747 1101.76 280.832 1144.96 613.527C1188.17 946.222 935.356 1253.85 579.522 1300.06C223.688 1346.26 -99.3065 1113.41 -142.508 780.711Z" stroke="url(#paint1_linear_5_113)" stroke-width="10"/>
<path d="M-150.732 755.485C-189.384 457.826 63.8777 178.219 416.936 132.373C769.994 86.5264 1086.27 292.177 1124.92 589.836C1163.57 887.495 910.312 1167.1 557.254 1212.95C204.195 1258.79 -112.08 1053.14 -150.732 755.485Z" stroke="url(#paint2_linear_5_113)" stroke-width="10"/>
<path d="M54.7997 471.184C234.912 128.015 600.242 -31.5878 869.552 109.759C1138.86 251.107 1215.04 642.433 1034.92 985.602C854.813 1328.77 489.482 1488.37 220.173 1347.03C-49.1372 1205.68 -125.312 814.352 54.7997 471.184Z" stroke="url(#paint3_linear_5_113)" stroke-width="15"/>
<path d="M25.637 392.476C186.046 115.602 547.049 24.0571 832.323 189.333C1117.6 354.608 1217.74 713.321 1057.33 990.196C896.921 1267.07 535.918 1358.62 250.644 1193.34C-34.6296 1028.06 -134.772 669.351 25.637 392.476Z" stroke="url(#paint4_linear_5_113)" stroke-width="35"/>
<path d="M12.3363 950.581C-163.266 641.446 -78.7937 263.012 199.57 104.889C477.934 -53.2334 846.241 68.003 1021.84 377.138C1197.44 686.274 1112.97 1064.71 834.609 1222.83C556.245 1380.95 187.938 1259.72 12.3363 950.581Z" stroke="url(#paint5_linear_5_113)" stroke-width="10"/>
<path d="M190.952 208.04C450.303 18.0206 835.075 100.516 1050.15 394.061C1265.22 687.605 1227.91 1079.35 968.556 1269.37C709.204 1459.39 324.432 1376.89 109.36 1083.35C-105.712 789.802 -68.3997 398.058 190.952 208.04Z" stroke="url(#paint6_linear_5_113)" stroke-width="10"/>
</g>
<defs>
<linearGradient id="paint0_linear_5_113" x1="1187.72" y1="984.562" x2="-84.3166" y2="456.087" gradientUnits="userSpaceOnUse">
<stop stop-color="#075985"/>
<stop offset="1" stop-color="#EC4899"/>
</linearGradient>
<linearGradient id="paint1_linear_5_113" x1="1149.92" y1="612.883" x2="-147.467" y2="781.355" gradientUnits="userSpaceOnUse">
<stop stop-color="#075985"/>
<stop offset="1" stop-color="#EC4899"/>
</linearGradient>
<linearGradient id="paint2_linear_5_113" x1="1129.88" y1="589.192" x2="-155.69" y2="756.129" gradientUnits="userSpaceOnUse">
<stop stop-color="#075985"/>
<stop offset="1" stop-color="#EC4899"/>
</linearGradient>
<linearGradient id="paint3_linear_5_113" x1="1041.57" y1="989.088" x2="48.1587" y2="467.698" gradientUnits="userSpaceOnUse">
<stop stop-color="#075985"/>
<stop offset="1" stop-color="#EC4899"/>
</linearGradient>
<linearGradient id="paint4_linear_5_113" x1="1072.47" y1="998.969" x2="10.4948" y2="383.704" gradientUnits="userSpaceOnUse">
<stop stop-color="#075985"/>
<stop offset="1" stop-color="#EC4899"/>
</linearGradient>
<linearGradient id="paint5_linear_5_113" x1="1026.19" y1="374.669" x2="7.98868" y2="953.051" gradientUnits="userSpaceOnUse">
<stop stop-color="#075985"/>
<stop offset="1" stop-color="#EC4899"/>
</linearGradient>
<linearGradient id="paint6_linear_5_113" x1="971.511" y1="1273.4" x2="187.996" y2="204.006" gradientUnits="userSpaceOnUse">
<stop stop-color="#075985"/>
<stop offset="1" stop-color="#EC4899"/>
</linearGradient>
<clipPath id="clip0_5_113">
<rect width="1500" height="1500" fill="white" transform="translate(-226 1470) rotate(-90)"/>
</clipPath>
</defs>
</svg>
