<svg width="1140" height="243" viewBox="0 0 1140 243" fill="none" xmlns="http://www.w3.org/2000/svg">
<g clip-path="url(#clip0_5_113)">
<path d="M-68.1559 -715.199C41.6826 -979.579 406.98 -1086.31 753.123 -942.5C1099.27 -798.692 1281.39 -464.532 1171.55 -200.152C1061.72 64.2274 696.419 170.956 350.276 27.1482C4.13264 -116.659 -177.994 -450.819 -68.1559 -715.199Z" stroke="url(#paint0_linear_5_113)" stroke-width="35"/>
<path d="M-142.508 -397.289C-185.71 -729.984 67.0997 -1037.61 422.934 -1083.82C778.768 -1130.03 1101.76 -897.168 1144.96 -564.473C1188.17 -231.778 935.356 75.8502 579.522 122.057C223.688 168.263 -99.3065 -64.5941 -142.508 -397.289Z" stroke="url(#paint1_linear_5_113)" stroke-width="10"/>
<path d="M-150.732 -422.515C-189.384 -720.174 63.8777 -999.781 416.936 -1045.63C769.994 -1091.47 1086.27 -885.823 1124.92 -588.164C1163.57 -290.505 910.312 -10.8976 557.254 34.9486C204.195 80.7947 -112.08 -124.856 -150.732 -422.515Z" stroke="url(#paint2_linear_5_113)" stroke-width="10"/>
<path d="M54.7997 -706.816C234.912 -1049.99 600.242 -1209.59 869.552 -1068.24C1138.86 -926.893 1215.04 -535.567 1034.92 -192.398C854.813 150.771 489.482 310.373 220.173 169.026C-49.1372 27.6789 -125.312 -363.648 54.7997 -706.816Z" stroke="url(#paint3_linear_5_113)" stroke-width="15"/>
<path d="M25.637 -785.524C186.046 -1062.4 547.049 -1153.94 832.323 -988.667C1117.6 -823.392 1217.74 -464.679 1057.33 -187.804C896.921 89.07 535.918 180.615 250.644 15.3396C-34.6296 -149.936 -134.772 -508.649 25.637 -785.524Z" stroke="url(#paint4_linear_5_113)" stroke-width="35"/>
<path d="M12.3363 -227.419C-163.266 -536.554 -78.7937 -914.988 199.57 -1073.11C477.934 -1231.23 846.241 -1110 1021.84 -800.862C1197.44 -491.726 1112.97 -113.292 834.609 44.8302C556.245 202.953 187.938 81.7164 12.3363 -227.419Z" stroke="url(#paint5_linear_5_113)" stroke-width="10"/>
<path d="M190.952 -969.96C450.303 -1159.98 835.075 -1077.48 1050.15 -783.939C1265.22 -490.395 1227.91 -98.6506 968.556 91.3683C709.204 281.387 324.432 198.892 109.36 -94.6528C-105.712 -388.198 -68.3997 -779.942 190.952 -969.96Z" stroke="url(#paint6_linear_5_113)" stroke-width="10"/>
</g>
<defs>
<linearGradient id="paint0_linear_5_113" x1="1187.72" y1="-193.438" x2="-84.3166" y2="-721.913" gradientUnits="userSpaceOnUse">
<stop stop-color="#075985"/>
<stop offset="1" stop-color="#EC4899"/>
</linearGradient>
<linearGradient id="paint1_linear_5_113" x1="1149.92" y1="-565.117" x2="-147.467" y2="-396.645" gradientUnits="userSpaceOnUse">
<stop stop-color="#075985"/>
<stop offset="1" stop-color="#EC4899"/>
</linearGradient>
<linearGradient id="paint2_linear_5_113" x1="1129.88" y1="-588.808" x2="-155.69" y2="-421.871" gradientUnits="userSpaceOnUse">
<stop stop-color="#075985"/>
<stop offset="1" stop-color="#EC4899"/>
</linearGradient>
<linearGradient id="paint3_linear_5_113" x1="1041.57" y1="-188.912" x2="48.1587" y2="-710.302" gradientUnits="userSpaceOnUse">
<stop stop-color="#075985"/>
<stop offset="1" stop-color="#EC4899"/>
</linearGradient>
<linearGradient id="paint4_linear_5_113" x1="1072.47" y1="-179.031" x2="10.4948" y2="-794.296" gradientUnits="userSpaceOnUse">
<stop stop-color="#075985"/>
<stop offset="1" stop-color="#EC4899"/>
</linearGradient>
<linearGradient id="paint5_linear_5_113" x1="1026.19" y1="-803.331" x2="7.98868" y2="-224.949" gradientUnits="userSpaceOnUse">
<stop stop-color="#075985"/>
<stop offset="1" stop-color="#EC4899"/>
</linearGradient>
<linearGradient id="paint6_linear_5_113" x1="971.511" y1="95.4017" x2="187.996" y2="-973.994" gradientUnits="userSpaceOnUse">
<stop stop-color="#075985"/>
<stop offset="1" stop-color="#EC4899"/>
</linearGradient>
<clipPath id="clip0_5_113">
<rect width="1500" height="1500" fill="white" transform="translate(-226 292) rotate(-90)"/>
</clipPath>
</defs>
</svg>
